<svg width="1118" height="1118" viewBox="0 0 1118 1118" fill="none" xmlns="http://www.w3.org/2000/svg">
<g id="oook_no-bg 1">
<g id="lTxqAubvuTClwsdno7dVtk">
<g id="Group">
<path id="pnOgGRndi" d="M97 652.5C97 651.7 96.3 651 95.5 651C94.7 651 94 650.3 94 649.5C94 648.7 94.5 648 95 648C95.6 648 96 647.3 96 646.5C96 645.7 95.4 645 94.6 645C93.8 645 92.9 643.5 92.6 641.6C92.2 639.7 90.8 636.6 89.5 634.6C85.7 629 83.9 625 84.5 624C84.8 623.4 84.7 623 84.1 623C83.5 623 83.3 622.4 83.6 621.6C83.9 620.8 83.6 619.9 83.1 619.5C82.5 619.2 82.2 618.4 82.5 617.9C82.9 617.4 82.6 617 81.9 617C81.2 617 81 616.7 81.3 616.3C81.7 616 81.5 615.1 80.9 614.3C80.3 613.6 80.1 613 80.4 613C80.8 613 80.5 612 79.8 610.8C79.1 609.5 78.7 608.2 78.8 607.8C78.9 607.3 78.6 607 78.2 607C77.4 607 75 602.7 75 601.5C75 601.2 76.1 601 77.3 601C79.8 601 82 604.3 82 608C82 609.1 82.4 610 82.8 610C83.3 610 84.4 612.3 85.3 615.1C87.3 621.1 90 625.3 95.1 630C98.9 633.5 98.9 633.5 99.5 643.8C100.1 652.7 100 654 98.6 654C97.7 654 97 653.3 97 652.5Z" fill="#ACACAC"/>
<path id="pTv29WN14" d="M114.8 568C108.1 562.4 101.2 549.5 94.5 529.5C93.1 525.1 89.8 517.1 87.4 511.8C82.2 500.7 81.5 497.3 82.4 489.6C83 485.1 84.3 482.2 88.9 475.2C92.1 470.4 97.4 463.3 100.6 459.4C109.9 448.5 110 448.2 101.5 454.7C92.7 461.4 89.6 463 84.6 463C81.2 463 81.2 463 80.6 453.3C80.3 447.9 79.7 433.3 79.4 420.8C78.7 398.1 78.7 398.1 82.3 390.8C86.2 382.9 97.3 367.7 107.3 356.5C110.7 352.7 114.2 348.6 115 347.6C116.7 345.4 116.7 345.4 109.7 349.7C106.8 351.5 104.7 352 101.2 351.8C96.5 351.5 96.5 351.5 96.6 346.9C96.6 341.5 99.5 332.6 106.2 317.2C112.1 303.6 119.3 291 131.3 273C142.9 255.7 144.9 253.1 155.7 241.3C160.7 235.9 166 230.1 167.4 228.3C168.9 226.6 173.3 222.6 177.3 219.6C187 212.2 195.8 204.1 194.3 204C193.6 204 193 204.5 193 205C193 205.6 192.4 206 191.7 206C191 206 189.9 206.9 189.2 208C188.5 209.1 187.3 210 186.5 210C185.7 210 185 210.3 185 210.8C185 211.2 183.3 212.6 181.2 214C179.2 215.4 177.3 216.7 177 217C175.4 218.9 171.2 221 169.3 221C167.5 221 167 221.6 167 223.4C167 225.1 166.1 226.2 164 227.2C162.4 227.9 161 228.7 161 229.1C161 229.4 156.8 233.9 151.8 239.1C133.8 257.4 125 266.7 125 267.4C125 268.3 119.8 275.4 118.8 275.8C118.3 276 118 276.8 118 277.5C118 278.3 117.4 279.3 116.7 279.7C116.1 280.1 114.9 281.7 114.2 283.1C113.4 284.5 110.4 288.3 107.4 291.4C103.9 295 101.7 298.3 101.4 300.3C100.7 304.3 99.2 307.6 96.3 311.6C95 313.3 94 315.2 94 315.8C94 316.5 93.6 317 93.2 317C92.7 317 91.5 318.8 90.5 321C89.5 323.2 88.4 325 88.1 325C87.8 325 86.7 327 85.7 329.5C84.6 332 83.5 334 83 334C82.6 334 81.6 335.5 80.9 337.3C79 341.8 76.9 344 74.4 344C72.2 344 70.1 339.8 72 339.2C72.6 339 72.8 338.4 72.4 337.9C72.1 337.4 72.3 337 72.9 337C73.8 337 75.1 334.3 75.6 331C75.8 330.2 76.4 329.4 77 329.2C77.5 329 77.8 328.4 77.4 327.9C77.1 327.4 77.4 327 78 327C78.6 327 78.8 326.6 78.5 326C78.2 325.5 78.4 325 79 325C79.6 325 79.8 324.6 79.5 324C79.2 323.5 79.4 323 80 323C80.6 323 80.8 322.6 80.5 322C80.2 321.5 80.4 321 81 321C81.6 321 81.8 320.6 81.5 320C81.2 319.5 81.4 319 82.1 319C82.8 319 83.1 318.7 82.7 318.4C82.4 318.1 83 316.9 84 315.7C85.1 314.6 85.7 313.4 85.5 313C85.2 312.5 85.7 311.9 86.6 311.6C87.4 311.3 87.9 310.6 87.6 310.1C87.3 309.6 87.7 308.9 88.6 308.6C89.4 308.3 89.9 307.6 89.6 307.1C89.3 306.6 89.7 305.9 90.6 305.6C91.4 305.3 91.9 304.6 91.6 304.1C91.3 303.6 91.7 302.9 92.6 302.6C93.4 302.3 93.8 301.6 93.5 301C93.2 300.4 93.6 299.7 94.4 299.4C95.3 299.1 95.7 298.4 95.4 297.9C95.1 297.4 95.6 296.7 96.4 296.4C97.3 296.1 97.8 295.5 97.5 295C96.2 292.9 109.2 276.5 111.5 277.4C112.3 277.7 113 277.5 113 277C113 276.4 112.6 276 112 276C111.5 276 111.3 275.3 111.7 274.4C112 273.5 113 273 114.1 273.3C116.2 273.9 116.8 272.4 114.8 271.8C113.2 271.2 116.8 266.1 123.4 259.3C126.2 256.5 131.7 250.6 135.5 246.3C143.8 236.9 154.3 227.6 157.1 227.2C158.2 227 159.6 225.8 160.2 224.5C160.8 223.2 162.2 222 163.4 221.8C164.5 221.6 166.4 220 167.7 218.2C168.9 216.4 172.3 213 175.2 210.7C178.1 208.4 180.7 206.2 181 205.9C182.1 204.4 192.9 197.6 199.1 194.4C202.8 192.6 207.1 189.7 208.8 188.1C210.5 186.4 212.5 185 213.3 185C214.1 185 215.8 184.2 217.1 183.1C222.4 179 263.4 159.5 281.6 152.4C288.7 149.7 294.2 149 294.7 150.7C295.3 152.3 306.2 147.9 309.3 144.8C310.9 143.3 312.7 141.9 313.3 141.8C317 141.4 320 141.5 320 142.2C320 143.7 321.7 143 324.5 140.4C328.4 136.8 334.6 134.3 347.2 131.4C355.7 129.4 358.7 129 361 129.8C364.9 131.2 367.5 130.4 368.9 127.3C369.8 125.2 370.6 124.9 373 125.2C374.7 125.5 376 125.4 376 125C376 124.6 379.9 123.8 384.8 123.1C393.5 121.9 408.5 119.5 425.5 116.6C437.2 114.6 466 112.6 470.5 113.4C472.6 113.8 474 114.7 474 115.5C474 116.7 475.7 117 482.5 117C489.3 117 491 116.7 491 115.5C491 113.2 495.4 113 532 113.3C565.6 113.6 596.4 115.6 601.5 117.9C602.6 118.4 605.7 119.1 608.4 119.3C611.1 119.6 613.5 120.2 613.9 120.8C614.2 121.3 618.3 121.8 622.9 121.9C627.6 122 631.9 122.5 632.5 123C633.2 123.5 634 123.7 634.3 123.4C634.6 123 635.7 123.1 636.7 123.5C637.7 123.9 640.3 124.3 642.5 124.5C644.7 124.6 654.1 126.6 663.4 128.9C675.5 131.9 681.9 134 685.7 136.3C688.6 138 691 139.9 691 140.4C691 140.9 688.3 141 685 140.7C679.2 140.2 679 140.3 679 142.5C679 144 677.9 145.5 676.1 146.7C673.2 148.5 673.2 148.5 684.9 148.2C692.2 147.9 700.5 148.4 707.3 149.4C720.4 151.4 721 151.4 721 149.6C721 148.7 721.9 148.2 723 148.3C724.1 148.4 725 148.9 725 149.4C725 149.9 725.3 150.1 725.6 149.7C725.9 149.4 728.1 149.8 730.3 150.6C732.6 151.4 736.5 152.5 739 153.1C741.4 153.7 744.2 154.7 745 155.5C745.9 156.3 749.5 158 753 159.4C761.7 162.7 770.5 167.1 779.5 172.5C783.5 175 787.2 177 787.5 177C789.9 177 822.9 198.7 835.9 208.8C846.4 217 863.1 232.2 881 250C891 259.9 893.2 262.8 897.3 270.8C900.7 277.3 902.6 280 903.9 280C904.9 280 906.3 280.7 907 281.5C907.7 282.3 907.9 283 907.5 283C907.1 283 907.2 283.6 907.7 284.3C908.3 284.9 909 286.7 909.3 288.1C909.7 289.5 912.8 294.9 916.3 300.1C923.5 310.7 928.6 320.3 933 331.7C934.7 336 936.5 340.3 937 341.3C937.9 342.7 937.6 343 935.1 343C932.3 343 931.7 342.2 925.4 329.7C921.7 322.5 918.4 316.3 918 316C917.6 315.7 916.2 313.5 914.9 311C912.5 306.5 912.5 306.5 912.2 313C911.9 322.8 911.5 323.6 906.8 325.5C903.4 326.9 897.8 327.5 879.5 328.1C866.9 328.6 850.4 329.4 843 329.9C835.6 330.5 821.2 331.4 811 332C787.7 333.4 743.9 337.3 716.5 340.6C672.5 345.8 610.8 355.4 592 360C587.9 361 582.7 362.1 580.5 362.5C577 363.1 550.2 368.8 528.5 373.6C524.7 374.5 517.9 376.2 513.5 377.5C509.1 378.8 497.7 381.7 488.1 384C478.5 386.2 464.6 390.3 457.1 393C449.6 395.7 440.1 398.6 436 399.5C428.4 401.2 412.6 406 413.2 406.5C413.4 406.6 417.6 405.7 422.7 404.4C427.7 403.2 434.6 401.8 437.9 401.4C444 400.7 444 400.7 444 404.5C444 407.2 443.3 408.9 441.5 410.5C438.5 413.3 426.8 419 409 426.3C381.8 437.4 334.2 459.5 315.6 469.7C284.5 486.5 248.8 508 229.3 521.6C224.5 525 214.9 531 208 535C201.1 539 190.6 545.6 184.7 549.6C173.5 557.1 166.1 560.4 161.3 559.8C158.8 559.5 158.5 559.1 158.2 555.2C157.9 550.9 157.9 550.9 145.4 559.5C138.6 564.3 131.4 568.8 129.5 569.6C123.8 571.9 119 571.4 114.8 568Z" fill="#ACACAC"/>
<path id="piHyCQfvz" d="M57 545.6C57 544.8 56.4 543.9 55.8 543.7C54.8 543.3 54.8 543.1 55.8 543.1C57.5 543 57.3 541 55.5 541C54.7 541 54 540.1 54 539C54 537.9 53.4 535.4 52.6 533.6C51.8 531.7 50.9 527.1 50.6 523.3C50.1 517.3 48.9 507.5 47.5 498.5C47.2 496.9 46.7 486.8 46.4 476.3C45.9 462.3 46.1 457 46.9 457C47.5 457 48 456.3 48 455.5C48 454.7 48.7 454 49.5 454C50.5 454 51 455 51 456.9C51 458.6 51.4 460.2 52 460.5C53.5 461.5 53.3 486.7 51.8 487.3C50.9 487.7 51.1 487.9 52.1 487.9C53.7 488 54.7 495.4 55.6 513.5C55.7 517.4 56.3 521.7 56.9 523.1C58.4 527.3 59.5 547 58.1 547C57.5 547 57 546.4 57 545.6Z" fill="#ACACAC"/>
<path id="pKp7bf1hQ" d="M47.1 448C45.7 441.5 45.7 439 47.1 439C47.9 439 48.1 437.8 47.7 435.4C47.4 433.5 47.5 430.8 48 429.6C48.4 428.3 49.1 424.2 49.4 420.4C49.7 416.6 50.4 411.9 51 410C51.6 408.1 52.3 404.7 52.6 402.5C52.9 400.3 53.5 398.1 54 397.6C54.5 397.1 54.6 396.1 54.3 395.4C54 394.6 54.4 394 55.4 394C57.3 394 57.5 392.4 55.8 391.6C54.8 391.1 54.8 390.9 55.8 390.4C56.4 390.1 57 389.2 57 388.4C57 387.6 57.9 387 59 387C60.5 387 61 387.7 61 389.4C61 392 57.5 413.5 56.7 416C56.4 416.8 55.6 423.7 54.9 431.3C54.2 438.8 53.3 445 52.9 445C52.5 445 52 446.7 51.8 448.7C51.6 451.3 51 452.6 49.8 452.8C48.6 453 47.9 451.9 47.1 448Z" fill="#ACACAC"/>
<path id="pVMrUedbf" d="M941.2 371.3C938.9 366.2 936 354.5 936 350.4C936 348.7 936.6 348 937.8 348C939.3 348 940 349.3 940.9 353.8C941.6 356.9 942.8 360.4 943.5 361.6C944.7 363.5 948 373.4 948 375.2C948 375.6 947 376 945.7 376C943.9 376 942.9 374.9 941.2 371.3Z" fill="#ACACAC"/>
</g>
</g>
<g id="l2L4GkkxISIxScWo1gWcghP">
<g id="Group_2">
<path id="pXbCRWfMN" d="M859.3 812.4C859.8 808 865.4 798.2 870.9 792.3C872.1 791.1 873 789.6 873 789C873 788.5 874.4 788 876 788C877.7 788 879 788.2 879 788.5C879 790 875.8 795 874.9 795C874.3 795 874.1 795.9 874.5 797C874.9 798.4 874.7 799 873.6 799C872.6 799 872.3 799.6 872.6 800.5C873 801.5 872.6 802 871.5 802C870.6 802 870.2 802.5 870.5 803C870.8 803.6 870.4 804.3 869.6 804.6C868.7 804.9 868.2 805.6 868.5 806C868.8 806.5 868.2 807.1 867.2 807.4C865.5 808 861.4 814.6 861.8 816.3C861.9 816.7 861.3 817 860.4 817C859 817 858.8 816.2 859.3 812.4Z" fill="#7C7C7C"/>
<path id="pAY6I16Dn" d="M879.3 780.8C879.7 777.9 880.4 775.4 881 775.2C881.5 775 882 774.3 882 773.6C882 771.7 886.3 761.6 887.2 761.2C887.6 761 888 759.7 888 758.4C888 756.5 888.5 756 890.4 756C892.9 756 892.9 756 889.9 764.1C888.3 768.5 886.1 773.9 885 776.1C883.9 778.2 883.2 780 883.5 780C883.8 780 883.4 781.4 882.5 783C880 787.8 878.6 786.8 879.3 780.8Z" fill="#7C7C7C"/>
<path id="pDo4yPhlS" d="M896 741.5C896 739.6 896.5 738 897 738C897.6 738 898 737.4 898 736.8C898 733.7 902.6 721 903.7 721C904.5 721 905 719.7 905 717.9C905 716.2 905.6 714.2 906.4 713.4C908.2 711.7 912 711.5 912 713.3C912 716.4 910.6 719 909 719C906.8 719 905.8 722.6 907.3 725.2C908.3 726.8 908.2 727.4 906.8 728.4C905.8 729.1 905.3 730 905.7 730.3C906 730.7 905.8 731 905.1 731C904.4 731 904.2 731.5 904.5 732C904.8 732.6 904.6 733 904 733C903.4 733 903.1 733.4 903.4 733.9C903.8 734.4 903.6 735 903 735.2C902.4 735.4 901.8 736.5 901.6 737.7C901 740.4 898.1 745 896.9 745C896.4 745 896 743.4 896 741.5Z" fill="#7C7C7C"/>
<path id="pqm2WJss2" d="M914.3 684.8C914.9 679.1 917.3 668.6 918.1 668C918.5 667.7 918.9 664.6 919.2 661.1C919.5 657.4 920.2 654.4 920.8 654.2C921.5 654 922 652.1 922 649.9C922 644.5 924.4 644.7 925.9 650.3C926.7 653.7 926.7 654.7 925.5 655.6C924.7 656.2 924.3 657 924.7 657.3C925 657.7 924.7 658 924 658C923.1 658 922.9 659.2 923.3 662.5C923.7 665.2 923.6 667 923 667C922.4 667 922.2 668.1 922.6 669.5C923 671.1 922.8 672 922.1 672C921.4 672 921.2 672.9 921.6 674.5C921.9 675.9 921.8 677 921.2 677C920.6 677 920.4 677.9 920.7 679C921 680.2 920.7 681 920 681C919.3 681 919.1 681.8 919.5 683C919.8 684.1 919.7 685 919.2 685C918.6 685 918.4 685.9 918.7 687C919.1 688.6 918.7 689 916.5 689C913.9 689 913.8 688.8 914.3 684.8Z" fill="#7C7C7C"/>
<path id="pmXBpkT67" d="M91.4 632.5C87.3 628.2 85.6 625.3 82.5 617.4C80.4 611.9 77.9 606.3 76.9 604.8C74.3 601.2 74.5 600.8 78.2 601.2C81.2 601.5 81.7 602 84.6 609C91 624.4 94.4 630.9 96.3 631C97.6 631 98 631.8 98 634.5C98 636.4 97.7 637.9 97.3 637.9C96.8 637.8 94.2 635.4 91.4 632.5Z" fill="#7C7C7C"/>
<path id="p91q6p6xB" d="M908.5 606.7C906.3 605.9 902 604.1 899 602.5C892.1 599 862.8 578.3 849.5 567.6C822.6 545.8 812.4 537.8 804.4 532.4C799.6 529.2 791.9 523.6 787.1 520.1C765.3 503.9 748.3 494 700.5 469.4C667.7 452.5 635.1 438.7 596 425C575.5 417.9 557 411.8 539 406.2C529.5 403.3 529.5 403.3 529.2 399.1C528.9 395.6 528.6 394.9 527.2 395.5C526.3 395.9 522.6 396.6 519 397.1C498.7 400 479.7 405.5 439 420.2C393.6 436.5 331.1 465.1 293.5 486.6C262.2 504.6 259.7 506.1 214 537C175.7 562.8 168.6 567.9 145 586.4C127.5 600.1 120.9 604 115.3 604C111.2 604 111 603.9 111 601.1C111 599.5 111.4 597 112 595.5C112.9 593.1 112.6 593.2 107.6 597C103 600.5 101.6 601 97.2 601C92.6 601 91.9 600.7 89.7 597.8C87.5 594.8 79 576 79 574.1C79 572.8 71.2 552.3 67 542.5C61.2 528.9 59.7 522 60.5 512.6C61.2 504.1 63.8 495.7 67 491.7C68.1 490.3 69 488.9 69 488.6C69 488.4 67.1 488 64.7 487.8C60.8 487.5 60.4 487.2 59.3 483.7C58.4 481.1 57.9 471.3 57.8 453.7C57.6 428.3 57.7 427.2 60.2 417.9C63 407.7 65.8 401.6 73.9 388C79 379.5 79 379.5 76.3 379.2C72.9 378.7 72 377.5 72 373C72 368.6 79.8 345.6 86.2 331.5C88.9 325.5 91.4 319.9 91.7 319.3C92 318.5 91.4 318 90.1 318C87.7 318 87.4 316.8 89.3 314.8C90.5 313.6 91.7 311.3 92.1 309.2C92.2 308.8 93.1 307.9 94.2 307.1C95.3 306.4 95.9 305.2 95.6 304.5C95.4 303.8 95.8 302.9 96.7 302.6C97.7 302.2 98 301.2 97.7 299.9C97 297.5 99.1 293.3 101.9 291.3C103.1 290.5 103.9 289.6 103.7 289.2C103.5 288.8 104.8 287.2 106.6 285.7C109.9 282.9 110 282.8 110 285C110 286.9 110.5 286.6 113.4 282.9C120 274.2 124.2 267 122.6 267C119.9 267 122 263.8 130.5 255C135 250.3 141.3 243.6 144.6 240.1C151.9 232.3 170.2 216.4 178.3 211C180.3 209.6 182 208.2 182 207.8C182 207.3 182.7 207 183.5 207C184.3 207 185.5 206.1 186.2 205C186.9 203.9 188 203 188.7 203C189.4 203 190 202.6 190 202C190 201.5 190.5 201 191.1 201C191.7 201 193.7 199.8 195.6 198.3C197.5 196.9 201.4 194.9 204.3 194C207.2 193.1 209.6 191.8 209.6 191.1C209.7 190.5 209.8 189.6 209.9 189C209.9 188.5 210.9 188 212 188C214.7 188 220 185.3 220 183.9C220 183.4 222.6 181.7 225.7 180.3C233.2 177.1 238.5 174.7 243.8 172.5C246.1 171.4 248 170.3 248 169.8C248 169.4 248.5 169 249.2 169C249.8 169 252.4 167.7 254.9 166.1C257.4 164.5 262.7 162.1 266.5 160.9C270.4 159.7 274.2 158.1 275.1 157.3C275.9 156.6 277.4 156 278.4 156C280.6 156 287.3 153.2 288 152C288.4 151.4 293.1 149.8 298.6 148.4C304 147 310.3 145 312.5 144C318.2 141.5 338.4 135.4 345.7 134.1C349.1 133.5 353.1 132.3 354.7 131.5C356.2 130.7 359.9 130 362.8 130C365.8 130 369.5 129.3 371.3 128.3C373.1 127.4 375.7 126.7 377.3 126.8C378.8 126.9 381.3 126.4 382.9 125.5C384.5 124.7 391.8 123.4 399.2 122.5C406.5 121.7 415.2 120.6 418.5 120C421.8 119.5 426.6 119 429.2 119C431.8 119 435.1 118.5 436.6 118C438 117.4 444.9 116.7 451.9 116.5C458.8 116.2 465.9 115.6 467.7 115.1C472.3 113.8 548.6 114.6 554.4 116.1C557 116.7 561.1 117 563.5 116.7C566 116.3 569.1 116.5 570.5 117C572.8 117.9 582.3 118.8 596 119.5C599 119.7 606.2 120.5 612 121.5C617.8 122.4 625.4 123.5 628.9 124C632.4 124.4 635.6 125.4 636.1 126.1C636.5 126.8 636.8 127.5 636.7 127.6C636.6 127.7 628.2 126.8 618 125.5C582 121 560.3 119.8 518 119.9C461.2 120.1 429.8 122.6 384.5 130.6C357.6 135.4 343.3 139.2 314.5 149C277 161.9 249.7 174.8 218 194.5C208.4 200.5 196.9 208.6 192.5 212.5C188.1 216.3 181.9 221.5 178.7 223.9C175.5 226.3 171.8 229.7 170.3 231.4C168.9 233.1 163.7 238.9 158.7 244.3C147.9 256.1 145.9 258.7 134.3 276C118.8 299.2 108.8 318.4 102.2 337.5C99.4 345.9 99.1 348.4 101.1 348.8C103.1 349.2 113.3 343.1 123.8 335.3C131.4 329.7 142.8 323 144.8 323C147.3 323 145.7 324.8 136.5 332.9C117.8 349.1 92.6 379.2 85.3 393.8C81.7 401.1 81.7 401.1 82.4 420.3C83.4 452.8 84.1 460.2 85.7 459.6C86.5 459.2 87.5 459 88 459C88.5 459 92.8 456 97.7 452.3C109.9 443 123.1 434 124.7 434C126.2 434 126.5 436.6 125.1 437.5C122.7 438.9 97.9 469.4 92.4 477.6C83.5 490.9 83.3 494.6 90.7 509.6C92.4 512.8 95.2 519.8 97 525C104.6 547.4 111.4 560.2 118.4 565.5C122 568.2 122.2 568.2 125.9 566.8C128 565.9 139 558.9 150.3 551.1C161.7 543.3 171.7 536.7 172.5 536.4C173.4 536 171.8 538.8 169.1 542.4C163.2 550.2 160.7 554.7 161.5 556C162.6 557.7 171.7 553.4 182.3 546.2C187.9 542.4 198.1 536 205 532C211.9 528 221.5 522 226.3 518.6C245.8 505 281.5 483.5 312.6 466.7C331.2 456.5 378.8 434.4 406 423.3C428.8 414 441 407.5 441 404.8C441 403.2 405.4 412.3 383.8 419.5C378.1 421.4 368 425.1 361.4 427.8C348.3 433.1 342.8 434.8 344.6 433.1C345.7 431.9 376.4 418 385 414.7C388 413.6 393.2 411.2 396.5 409.4C404.9 404.9 420.1 399.4 431.1 397C436.3 395.9 446.6 392.7 454.1 390C461.6 387.3 475.5 383.2 485.1 381C494.7 378.7 506.1 375.8 510.5 374.5C514.9 373.2 521.7 371.5 525.5 370.6C547.2 365.8 574 360.1 577.5 359.5C579.7 359.1 584.9 358 589 357C607.8 352.4 669.5 342.8 713.5 337.6C740.9 334.3 784.7 330.4 808 329C818.2 328.4 832.6 327.5 840 326.9C847.4 326.4 863.9 325.6 876.5 325.1C894.6 324.5 900.3 324 903.5 322.6C905.6 321.7 907.8 320.4 908.2 319.7C909.8 317.1 908.9 307.9 906 298.5C904.4 293.1 903 288.5 903 288.3C903 288 905.3 289.7 908 292C910.8 294.3 913 296.7 913 297.2C913 298.5 920 312.3 921 313C921.4 313.3 922.5 315 923.4 316.8C925 319.9 925 320 923 320C921.5 320 921 320.7 921 322.8C921 330.4 915.8 332 890.8 332.1C868.1 332.2 853.7 333.6 872.6 333.9C879.3 333.9 886.2 334.3 887.9 334.6C890.6 335.2 891 335.6 891 338.6C891 342 891 342 901.3 342.1C906.9 342.1 915.2 342.5 919.8 342.8C924.3 343.2 928.7 343.2 929.5 342.7C931.5 341.6 931.5 337 929.5 337C928.4 337 928 335.9 928 333.4C928 328.8 929.7 329.3 932.5 334.7C933.6 337 935.3 339.7 936.1 340.7C938.2 343 940.3 349.6 939.5 351C939.2 351.5 939.4 352 940.1 352C940.7 352 941 352.8 940.7 354C940.4 355.1 940.6 356 941.2 356C941.8 356 942 357.1 941.8 358.5C941.5 359.9 941.7 361 942.2 361C942.8 361 942.9 361.7 942.6 362.6C942 364.1 945.5 372 947.3 373.1C947.9 373.5 948.1 375.8 947.7 378.6C947.4 381.8 947.8 385.3 949 389.1C950.8 394.5 951.5 398.7 954.2 417C954.7 421.1 955.7 425.1 956.2 425.7C956.8 426.4 956.9 428.1 956.6 429.5C956.2 430.9 956.3 432.6 956.7 433.3C957.1 434 957.6 436.3 957.7 438.5C957.8 440.7 958.4 447.9 958.9 454.5C959.4 461.1 959.9 477.4 960 490.8C960.1 506.5 960.5 515 961.1 515C961.7 515 961.4 515.7 960.6 516.6C959.3 517.9 958.4 523 958.9 526.3C958.9 526.7 958.6 527 958.1 527C957.7 527 957.5 528.1 957.8 529.5C958.1 531.1 957.8 532 957 532C956.2 532 955.9 533.6 956.2 537C956.3 539.8 956.2 542 955.8 542C955.4 542 955.3 543.4 955.7 545C956 546.9 955.8 548 955.1 548C954.5 548 954 549.3 954 550.9C954 552.6 953.3 556.9 952.4 560.6C951.6 564.3 950.9 569.5 950.8 572.2C950.8 576.6 950.6 577 948.4 577C946.8 577 946 576.4 946 575.3C946 574.3 944 577.9 941.6 583.3C936.7 594.1 931.7 601.3 926.7 604.7C922.6 607.5 913.9 608.5 908.5 606.7Z" fill="#7C7C7C"/>
<path id="pFicTYah7" d="M937 605C937 603.4 937.4 601.1 937.9 599.8C938.4 598.5 939.3 595 940 592C941.5 585.4 943.4 583 947.2 583C950.5 583 950.9 584.9 948 587.5C945.9 589.4 944 594.3 943.6 598.8C942.9 606.3 937 612 937 605Z" fill="#7C7C7C"/>
<path id="ph7vwK8SC" d="M56.9 545.8C56.8 543.9 56.3 541 55.2 535.6C54.6 532.9 54.4 530.1 54.7 529.3C55 528.6 54.7 528 54 528C53.4 528 53.1 527.6 53.4 527.1C53.7 526.6 53.3 524.9 52.5 523.4C50.8 520.1 50.5 517 52 517C52.6 517 53 516.3 53 515.5C53 514.7 53.7 514 54.5 514C55.6 514 56 515.2 56 518.8C56 521.4 56.7 524.9 57.6 526.5C58.5 528.2 59.4 533.3 59.7 538.3C60.2 545.9 60.1 547 58.6 547C57.7 547 57 546.4 56.9 545.8Z" fill="#7C7C7C"/>
<path id="pt2FQXgV4" d="M49.1 463.9C47.4 460 48.3 443.1 50.3 441.7C51.1 441.1 51.2 440.7 50.4 440.4C48.8 439.7 51 435 52.9 435C54.1 435 54.2 436.7 53.5 444.8C53.1 450.1 52.8 457.3 52.9 460.8C53.2 467.8 51.5 469.2 49.1 463.9Z" fill="#7C7C7C"/>
<path id="pzEZprybl" d="M69 351.8C69 349.5 72.4 341.5 73.7 340.7C74.4 340.2 74.8 339.5 74.5 338.9C74.1 338.4 74.6 338 75.4 338C76.8 338 77.5 336.2 77.1 333.8C77.1 333.3 77.5 333 78.1 333C78.6 333 78.8 332.6 78.5 332C78.2 331.5 78.4 331 79.1 331C79.7 331 80.9 330.2 81.6 329.3C82.8 327.7 82.9 327.8 83 330.7C83 334.2 81.2 339 79.8 339C79.4 339 79 339.7 79 340.5C79 341.3 78.6 342 78 342C77.5 342 77 342.7 77 343.5C77 344.3 76.6 345 76 345C75.5 345 75 345.7 75 346.5C75 347.3 74.6 348 74 348C73.5 348 73 349.1 73 350.5C73 352.3 72.5 353 71 353C69.9 353 69 352.5 69 351.8Z" fill="#7C7C7C"/>
<path id="pmDb7wLBk" d="M870 248C867 246.4 859.2 243 852.7 240.4C846.3 237.8 841.1 235.2 841.3 234.6C841.4 234 843.7 232.4 846.4 231.1C850.7 229 851.5 228.8 855.2 229.9C857.4 230.6 860.8 232.7 862.6 234.6C864.5 236.5 866.7 238 867.4 238C869.4 238 878 247 878 249.1C878 251.6 876.5 251.4 870 248Z" fill="#7C7C7C"/>
<path id="p7dWC6w9j" d="M726.5 155.3C724.9 155.1 716.5 154 708 152.9C696.4 151.3 690 150.9 682.5 151.3C676.9 151.7 670 151.7 667.1 151.3C661.9 150.7 661.9 150.7 668.9 146.3C672.8 143.8 676 141.3 676 140.6C676 138.3 672.6 136.1 665.5 134.1C661.6 133 659.4 132.1 660.5 132.1C663.1 132 678.6 135.5 687 137.9C690.6 139 695.8 140.4 698.5 141C701.3 141.7 705.8 143.1 708.5 144.1C711.3 145.1 716.7 146.9 720.5 148.1C725.5 149.6 728.2 151 729.8 153.1C731.3 154.9 731.6 155.9 730.8 155.9C730.1 155.8 728.2 155.5 726.5 155.3Z" fill="#7C7C7C"/>
</g>
</g>
<g id="l3HiwQuUUHPQ7M6T2cSjyfc">
<g id="Group_3">
<path id="pJ6wWRBDq" d="M726.5 1046.9C724.3 1045.7 721.6 1045 720.2 1045.3C717.1 1045.9 713 1044.2 713 1042.3C713 1041.3 714.8 1041 720 1041C723.9 1041 727 1041.4 727 1041.8C727 1042.2 740.3 1042.5 756.5 1042.5C786 1042.5 786 1042.5 786 1044.8C786 1046.7 785.6 1046.9 783.5 1046.4C782.1 1046.1 777.4 1046.4 773 1047.1C766.6 1048.1 761.9 1048.1 748.8 1047.1C734.5 1046.1 732.4 1046.1 731.4 1047.4C730.5 1048.7 729.9 1048.7 726.5 1046.9Z" fill="#A36812"/>
<path id="pf3VBXzvN" d="M259.3 1047.3C254.8 1047 254 1046.6 254 1044.9C254 1042.9 254.5 1042.8 267.8 1042.9C275.3 1043 289.7 1042.8 299.8 1042.5C315.3 1042 318 1042.1 318 1043.3C318 1044.9 315.9 1046 312.9 1046C311.9 1046 311 1046.5 311 1047C311 1048.4 297.7 1048.3 296.3 1046.9C295.6 1046.2 293.5 1046 290.8 1046.4C285 1047.3 265.7 1047.8 259.3 1047.3Z" fill="#A36812"/>
<path id="pfSasZEtQ" d="M689.2 1039.6C681.2 1035.3 680.8 1034.9 676.7 1028.7C674 1024.6 673.1 1022.1 672.6 1017C670.6 996.8 670.1 993 668.3 987.8C666.5 982.6 666.4 982 667.9 982C669.3 982 669.5 980.5 669.1 969.8C669 963 668.6 957.3 668.4 957.1C668.3 956.9 667.4 957.5 666.4 958.4C663.6 961.3 657.5 963.9 639.6 970C613.3 978.8 581.6 985.7 555.5 988.1C537.5 989.8 484 990.4 471.5 989C447.3 986.4 418.9 980.8 394.3 974C368.4 966.7 363.7 964.2 362.4 956.7C361.7 952.5 361.7 952.5 360.9 955.5C359.7 960.1 358 991.4 358.9 992C360.7 993.2 360.7 1001.7 358.9 1006.6C356.7 1012.3 356.5 1016.6 358.3 1017.3C359.1 1017.6 358.8 1018.4 357.3 1019.9C354.9 1022.2 354.3 1024 356 1024C356.6 1024 357 1024.5 357 1025C357 1025.6 356.1 1026 355 1026C353.9 1026 353.1 1026.3 353.2 1026.8C353.5 1027.5 349.7 1032.8 345.5 1037.5C344.4 1038.8 342 1040.1 340.3 1040.4C337.2 1040.9 337 1040.8 337 1038C337 1035.8 337.7 1034.8 340.2 1033.6C341.9 1032.7 344.5 1032 346 1032C348.4 1032 348.6 1031.7 348.2 1028.4C347.8 1024.9 347.8 1024.9 345.6 1026.8C339.5 1032.4 330.8 1034.6 309 1036.1C267.1 1038.9 236.7 1038.1 217.6 1033.8C211 1032.3 208.6 1032.1 208 1032.9C207 1034.6 201.9 1033.2 201.3 1031.1C200.9 1029.8 191 1022.5 183.9 1018.4C182.9 1017.8 181.1 1016 179.8 1014.4C178.6 1012.8 176.2 1009.9 174.4 1007.8C168.3 1000.9 166.6 983.5 169.9 962.5C172 949.7 174.4 927.2 176 906C177.1 891.4 176.4 856.4 175 854.5C174.6 854 174 848.5 173.7 842.3C172.8 827 169.8 813.1 163.8 797C150.6 761.5 148.7 755.1 148.2 744.5C147.7 735.2 147.6 734.7 146.5 738C145.5 741.1 144.9 741.5 141.3 741.8C137.2 742.1 137.2 742 134.7 736.8C129.2 725 120.3 692.7 116 669.1C113.8 656.4 113.2 627.5 115 620.9C115.8 618 118.8 614.8 128.4 606.2C135.2 600.1 143.8 591.7 147.5 587.6C151.3 583.4 157.7 577.7 161.9 574.8C166.1 572 174.7 565.3 181 560C205.4 539.7 277.9 492.7 309.7 476.6C312.8 475.1 316.6 474 319 474C322.9 474 323 474.1 323 477.3C323 479 322.1 484.9 321 490.3C318 505.3 318.2 526.4 321.5 538.8C326.9 559 338.4 574.7 352.5 581.1C361.8 585.4 374.7 581.7 382.9 572.4C394.9 558.8 404.1 528.4 402.6 507.3C401 483.8 396.1 470.2 384.4 456.3C380.9 452.2 380 450.4 380 447.3C380 443.5 380 443.5 395.3 437.3C428.1 423.8 461.7 412 491.5 403.4C511.2 397.7 511.6 397.8 534.2 405C588.4 422.4 634.9 439.1 641.6 443.5C644.8 445.6 644.9 451.9 641.8 454.6C638.8 457.3 631.3 469 628.4 475.6C625.1 483.1 622.2 494.7 621 505.8C619.3 521.2 623.3 541.9 630.8 556.5C635.8 566.1 648.6 579 655.4 581.3C665.7 584.8 673.8 582.4 683.2 573.2C692 564.7 700.3 544.6 703.5 524.2C705 515.1 705 513.2 703.5 503.4C700.3 481 699.8 476.1 700.3 474.6C701.6 471.4 707 472.9 720.4 480.2C760.7 502.1 762.7 503.3 785 519C811.1 537.3 822.3 546.2 853.6 573.9C860.7 580.1 869.9 587.8 874 590.8C878.1 593.9 884 598.7 887 601.5C890 604.3 896 609.4 900.3 612.9C908 619.1 908 619.1 908 639C908 654.9 907.6 660.8 906 669C901.7 690.4 897.8 705.7 893.7 717.9C889.5 730.5 889.5 730.5 885.6 730.5C881.8 730.5 881.5 730.3 877.1 723C871.7 714.2 858.7 700.9 850.6 696.1C844.2 692.3 833.5 689 827.5 689C823.1 689 807.9 692.2 804 693.9C801.5 695.1 801.5 695.1 804 694.4C805.4 694.1 812.7 693.6 820.2 693.3C832.2 692.8 834.8 693 840.9 694.9C854.5 699 866.9 710.6 874.2 725.8C877.2 731.9 877.2 732.4 876.8 743.3C876.3 754.2 876.1 754.9 870.3 769.5C860.5 793.8 852.4 817.7 853.4 818.8C854 819.4 857.7 812.6 859 808.5C859.7 806.3 861.1 803.3 862 801.7C865.3 796.4 875.5 784.1 876.8 784.1C877.4 784 878 782.9 878 781.6C878 777.1 896.7 732.9 899.7 730.4C900.4 729.8 901 727.2 901 724.6C901 722.1 901.5 720 902 720C902.6 720 903 718.9 903 717.5C903 715.3 903.4 715 906.4 715C908.3 715 910.2 715.5 910.5 716C910.8 716.6 910.5 717 909.7 717C908.8 717 907.3 719.5 906 723.1C904.1 728.2 903.9 729.3 905.1 730.1C906.2 730.8 906.1 731 904.5 731.1C903.3 731.1 903 731.4 903.8 731.7C904.8 732.1 904.7 732.5 903.4 733.4C902.5 734.1 901.6 735.9 901.5 737.5C901.3 739 900.8 740.6 900.3 740.9C899.4 741.5 892 757.9 888 768C886.8 771 885.3 774.6 884.7 776C884.1 777.4 883.6 779 883.5 779.5C883.3 781.6 878.7 790.2 877.4 790.7C876.7 790.9 876.4 791.8 876.7 792.6C877 793.4 876.6 794 875.9 794C873.2 794 862.7 810.3 861.5 816.3C861.3 817.3 859.7 820.3 858 822.8C855.6 826.4 855 828.2 855.4 830.8C855.8 833.7 855.6 834 853.4 834C851.6 834 851 833.5 851 831.8C851 828.8 850.4 829.8 849.6 834.3C848.9 837.9 849 838 852 838C854.5 838 855 838.4 855 840.4C855 841.7 854.6 843 854 843.2C852.5 843.7 851 853.4 851 862.6C851 870.3 850.8 871 849.1 871C847.4 871 847 870.2 846.7 865.8C846.5 862.9 846.3 865.7 846.2 872.1C846 883.7 846 883.7 848.3 883.3C850.3 882.9 850.5 883.3 850.5 886.7C850.5 888.8 850.9 892.4 851.3 894.8C852 898.8 851.9 899 849.6 899C847.4 899 847.1 898.5 846.7 894.8C846.5 892.4 846.4 896.6 846.4 904C846.4 911.4 846.6 914 846.7 909.8C847.1 902.4 847.2 902 849.4 902C851.6 902 851.7 902.3 851.8 911.3C852 923.5 853.8 937.8 855.5 941.3C856.3 942.8 856.5 944 856 944C855.6 944 854.8 945.4 854.5 947.2C853.9 949.7 854.2 950.7 855.6 951.9C857 953.1 857.4 954.6 857.2 957.7C857 960 857.8 966.7 858.9 972.7C860.1 978.6 861 984.7 861 986.2C861 987.6 861.6 989.1 862.3 989.4C863.2 989.9 863.2 990.1 862.3 990.6C861.6 990.9 861.4 991.8 861.7 992.6C862 993.4 861.8 994 861.3 994C860.8 994 859.4 995.8 858.1 998C856.9 1000.2 855.2 1002 854.4 1002C852.5 1002 852.5 996 854.5 993.4C856.3 991.1 856.4 982.9 854.7 974C853.5 967.5 853.5 967.5 853.5 979.5C853.5 990.8 853.3 991.9 850.4 998C841.7 1016.3 827.8 1026.3 805.5 1030.5C793.3 1032.8 707.4 1032.7 698.1 1030.4C686.8 1027.6 680.3 1023.6 678.1 1018C677.2 1015.8 677.1 1016.1 677.1 1020.3C677 1024.2 677.3 1025 678.8 1025C681 1025 689 1033.2 689 1035.4C689 1036.6 690 1037 692.5 1037C695.7 1037 696 1037.2 696 1040C696 1041.7 695.9 1043 695.8 1043C695.6 1043 692.7 1041.4 689.2 1039.6ZM512.9 915.9C537.8 911.8 553.4 903.5 566.4 887.2C578.2 872.3 584.5 860 587.4 846C589.7 835.3 589.8 724.7 587.6 714.3C583 692.8 570.8 674 553.6 662.1C529.6 645.5 502.3 641.8 476.3 651.6C452 660.7 430.1 683.3 423.3 706.3C419.4 719.5 419 726.1 419 777.7C419 822.9 419.2 828.9 421 839.2C424.2 857.7 429.7 870.9 439.8 884C453.2 901.4 470.6 911.5 494 915.5C503.9 917.2 505.1 917.2 512.9 915.9Z" fill="#A36812"/>
<path id="pQfgnjvrN" d="M830 1028.6C830 1025.8 830.8 1024.5 834 1021.7C836.2 1019.8 838 1017.8 838 1017.2C838 1016.5 839.5 1016 841.5 1016C843.4 1016 845 1016.3 845 1016.6C845 1018.6 832.9 1032 831 1032C830.4 1032 830 1030.5 830 1028.6Z" fill="#A36812"/>
<path id="p18nGswnmY" d="M907 710.1C907 706.4 908.7 700 910 699C910.7 698.4 912.3 690.6 914.6 676.5C915.5 671 916.6 666.4 917.1 666.2C917.6 666 918 663.9 918 661.5C918 656.2 918.8 654 920.6 654C921.7 654 921.9 652.9 921.4 648.5C920.8 643.3 920.9 643 922.9 643C924.6 643 925 643.6 925 646.6C925 648.5 925.5 651 926 652.1C926.8 653.4 926.7 654 926 654C925.4 654 925.1 654.4 925.4 654.9C925.7 655.4 925.4 656 924.6 656.3C922.5 657.1 921.4 663 923.1 664.1C924.3 664.9 924.3 665.1 923.1 665.9C922.3 666.4 922 667.5 922.5 668.9C923 670.4 922.7 671 921.6 671C920.7 671 920 671.7 920 672.5C920 673.3 920.5 674 921 674C922.8 674 922.1 677 920.3 677.1C919.2 677.1 919 677.4 919.8 677.7C921.5 678.4 921.3 681 919.5 681C917.7 681 917.5 682.6 919.3 683.3C920 683.6 919.8 683.9 918.8 683.9C916.9 684 916.2 686 918 686C919.5 686 919.2 690.6 917.7 692.2C916.9 692.9 916.5 694.1 916.8 694.8C917 695.4 916.7 696 916.1 696C915.4 696 915.2 696.9 915.6 698.4C915.9 699.8 915.6 701.3 914.7 702.1C914 702.9 913.5 704.1 913.8 704.8C914 705.4 913.7 706 913.1 706C912.4 706 912.2 707 912.6 708.5C913 710 912.8 711 912.1 711C911.5 711 911.3 711.7 911.6 712.5C912.1 713.6 911.5 714 909.6 714C907.2 714 907 713.6 907 710.1Z" fill="#A36812"/>
</g>
</g>
<g id="l019gofdLSUp9cVvWcOmBWJ">
<g id="Group_4">
<path id="p17UhEexqC" d="M924 636.2C924 633.4 924.6 631.7 925.8 630.8C927 630 927.9 627.7 928.3 624.5C928.9 619.5 928.9 619.5 921.7 619.8C914.9 620.1 914 619.9 906.5 616C902.1 613.7 898.3 611.5 898 611.1C897.7 610.7 895.4 608.8 892.9 606.9C890.4 605 882.9 599.4 876.4 594.4C869.9 589.4 863.5 584.8 862.3 584.2C861.1 583.5 859.6 582.4 858.8 581.7C858.1 581 855.3 578.9 852.6 577C849.8 575.1 846.8 572.8 845.9 572C844.9 571.2 842.2 568.9 839.9 567C837.5 565.1 832.6 560.8 829 557.4C823 551.9 813.1 543.6 806.3 538.4C804.7 537.2 799 533.2 793.5 529.5C788 525.8 781.6 521.2 779.2 519.3C776.9 517.4 769 512.3 761.7 508C754.5 503.6 746.5 498.9 744 497.4C741.5 495.9 736.4 493.1 732.5 491.2C728.7 489.3 724.8 487.1 724 486.4C721.8 484.6 682.3 464.4 674.3 461.1C670.6 459.5 664.8 457.1 661.5 455.6C658.2 454.1 654.6 452.5 653.5 452C652.4 451.6 649.5 450.3 647 449.1C644.5 448 640.7 446.5 638.5 445.7C636.3 444.9 630.9 442.8 626.5 441C609.2 434.1 565.3 418.8 534.3 409C525.3 406.2 518 403.6 518 403.1C518 398.8 476.7 410.4 430.5 427.7C407.4 436.3 383.7 446 383 447.1C382.3 448.1 373.9 451.9 372.4 452C371.7 452 364.5 455.1 356.4 459C341.3 466.1 337.2 468.1 326.5 473.8C323.2 475.5 319.4 477.2 318 477.4C313.3 478.4 275.7 500.1 251.1 516.2C212.4 541.5 196.7 552.4 183.3 563.6C176.5 569.3 170.5 574 170 574C169.6 574 165.6 576.8 161.2 580.2C156.8 583.7 152.2 587.2 151 588C149.8 588.8 148.2 590 147.6 590.5C147 591.1 144.7 592.8 142.5 594.4C140.3 596.1 135.6 600.1 132.1 603.4C120.8 614.2 112.3 621.2 108.7 622.8C103.1 625.2 99 624.4 94.3 619.8C92 617.5 89.8 615.8 89.6 616.1C89 616.7 95 629.4 96.1 629.8C96.6 630 97 631.7 97 633.7C97 637.2 97 637.2 93.9 634.3C89.9 630.6 86.8 625.3 82.9 615.1C81.2 610.4 78.7 605.7 77.4 604.5C74.5 601.8 73 598 73.2 593.5C73.3 591.1 71.8 586.9 68.6 580.4C65.2 573.7 63.7 569.4 63.6 566C63.4 563 62.4 559.6 60.7 556.8C58.8 553.5 57.9 550 57.1 542.5C56.5 537 55.3 530.5 54.6 528C53.8 525.5 52.9 519.7 52.6 515C52.2 510.3 51.5 502.2 51 497C49.8 485.4 49.4 454.4 50.4 443.5C51.4 431.8 53.7 414 55.8 401.5C56.9 395.5 57.5 389.9 57.3 389C57.1 388.2 57.8 386.5 59 385.3C60.1 384.1 60.9 382.7 60.8 382.3C60.7 381.9 62.2 376.6 64.2 370.5C66.2 364.5 68.1 357.5 68.5 355C69.4 349.3 71.9 343.1 74.2 340.5C75.3 339.4 78.9 333.6 82.2 327.5C85.6 321.5 89.8 314.5 91.6 312C95.7 306.2 98 301.6 98 299.1C98 298.1 99.6 295.2 101.6 292.8C103.6 290.5 109.5 282.7 114.6 275.5C120.5 267.2 127.5 258.9 134.1 252.5C139.8 247 143.5 243.6 142.3 245C141.1 246.4 139.3 249.5 138.2 252C136.5 256 131.6 263.5 111.8 292.7C100.3 309.5 87.6 335.8 79.6 359.1C73.8 376.1 74.3 378.4 83 374C85.2 372.9 87.1 372 87.4 372C87.6 372 84.6 377.5 80.7 384.3C68.5 405.4 66 410.7 63.3 420.7C60.8 430.1 60.7 431.5 60.8 453.5C61 476.3 61.9 483.6 64.5 484.6C65.2 484.9 67.6 484.2 69.9 483.1C72.1 481.9 74.6 481 75.5 481C78.3 481 77.1 485.6 73 490.8C67.8 497.3 65 503.6 63.9 511.7C62.8 519.5 64.2 526.1 70 539.5C74.2 549.3 82 569.8 82 571.1C82 573 90.5 591.8 92.7 594.8C94.1 596.6 96 598 97.2 598C99.5 598 105.1 594.1 116.7 584.4C121 580.9 125 578 125.7 578C126.9 578 123.3 584.9 118.9 591.2C115.7 595.6 113.7 601 115.3 601C117.7 601 128.6 593.8 142 583.4C165.6 564.9 172.7 559.8 211 534C256.7 503.1 259.2 501.6 290.5 483.6C310.2 472.4 327.1 463.9 362.5 447.5C415.6 423 478.7 400.5 508 395.5C513.2 394.7 519.3 393.5 521.5 392.9C523.7 392.4 530.2 391.1 535.9 390C541.7 388.9 548 387.6 549.9 387C551.9 386.5 555.1 386 557 386.1C559.9 386.1 558.9 386.6 551.9 388.9C542.5 391.9 531.7 397.6 532.2 399.2C532.4 399.8 536.9 401.6 542 403.2C593.8 419.2 633.1 433.7 670 450.2C684.4 456.6 704.2 466.5 733.5 482C753.6 492.6 774.4 505.5 790.1 517.1C794.9 520.6 802.6 526.2 807.4 529.4C815.4 534.8 825.6 542.8 852.5 564.6C868.3 577.4 896 596.6 904.4 600.6C916.5 606.4 922.2 605.2 930.1 595.5C939 584.5 954 542.1 954 528.2C954 521.5 950.2 508 946.8 502.7C943.2 497.1 943.7 496.1 950.6 494.2C955.6 492.8 957.8 493.4 958.6 496.5C959.3 499.4 958.5 514.9 957.2 522C956.7 525.1 956.7 527.6 957.1 527.8C958.5 528.4 958.1 530 956.6 530C955.8 530 955 531.5 954.6 533.8C953.7 539.4 953.9 544 955 544C955.6 544 956 544.5 956 545C956 545.6 955.4 546 954.7 546C953.9 546 953 548.7 952.1 553.3C948.6 573 948.6 573.1 949.9 573.9C951.6 575 950.3 586 948.5 586C946.5 586 943.9 589.6 944.6 591.4C944.9 592.3 944.8 593 944.2 593C942.8 593 941.9 597.3 943 598.4C944.5 599.9 944.2 602 942.4 602C941.6 602 941.2 602.5 941.5 603C941.8 603.6 941.7 604 941.3 604C940.8 604 940.4 605 940.4 606.3C940.3 614.5 940 616.2 938 616.7C936.9 617 936.3 617.6 936.6 618.1C936.9 618.6 936.7 619 936.1 619C935 619 932 626.7 932.2 629C932.6 633.4 931.9 636 930.3 636C929.4 636 927.6 637 926.3 638.2C924 640.3 924 640.3 924 636.2Z" fill="#5B5B5B"/>
<path id="pYB5WEBSY" d="M694 362.1C695.8 361.1 706.3 359.5 721 358C726.8 357.4 733.1 356.7 735 356.4C742.9 355.3 777.6 351.7 831.5 346.5C840.3 345.7 850.2 344.5 853.5 344C856.8 343.5 862.2 342.8 865.5 342.5C875.7 341.5 886.5 339.8 887.4 338.9C887.8 338.5 886.2 337.8 883.7 337.5C878.9 336.8 811.6 337.6 795.5 338.5C787.3 339 782.5 338.2 784.1 336.5C785.4 335.3 797.3 333.9 815 332.9C825.2 332.4 840 331.5 848 330.9C856 330.4 873.3 329.6 886.5 329.1C900.2 328.7 911.7 327.9 913.2 327.2C916.7 325.7 918 323.2 918 317.6C918 313.6 918.3 313 920.1 313C921.2 313 921.8 313.5 921.5 314C921.2 314.6 921.4 315 922 315C922.6 315 922.8 315.5 922.5 316C922.2 316.6 922.3 317 922.7 317C923.2 317 925.4 320.7 927.5 325.3C929.7 329.8 931.8 333.7 932.2 334C932.5 334.3 933.2 335.8 933.5 337.3C933.9 338.8 934.6 340 935 340C936.6 340 934.7 344.2 932.5 345.6C930.6 346.9 928.3 346.9 916.4 345.9C902.5 344.8 883.2 345.1 859.5 347C816.8 350.3 801.8 351.6 790 353C771.8 355.2 760.8 356.4 736 359C731.3 359.5 722.1 360.6 715.5 361.4C702.4 363.1 691.5 363.5 694 362.1Z" fill="#5B5B5B"/>
</g>
</g>
<g id="l2DPuRB6LAfolGJMtSjfSIQ">
<g id="Group_5">
<path id="ptLwKXC0k" d="M296.4 1046.7C295.7 1045.8 293.5 1045.5 289.9 1045.8C278.7 1046.7 242.8 1046.2 241.7 1045.1C240.1 1043.5 237.2 1043.8 236 1045.8C235.2 1046.9 234.7 1047.1 234.4 1046.3C234.1 1045.6 233.3 1045.3 232.5 1045.6C231.8 1045.9 227.9 1045.2 223.8 1044C218.5 1042.4 215.3 1040.7 212.3 1037.9C209.9 1035.7 207.4 1034 206.5 1034C205.7 1034 205 1033.6 205 1033.1C205 1032.6 204.4 1032.2 203.8 1032.3C196.9 1032.5 195.9 1032 188.4 1024.3C178.5 1014.1 178.3 1009.3 188.1 1016.1C199.7 1024.1 203.5 1026.1 211.2 1028.4C234.3 1035 257.9 1036.2 305.5 1033.1C330.4 1031.5 339.3 1028.7 344.9 1021C353.4 1009.2 357.4 980.6 357.5 931.5C357.5 879.9 352.2 847.5 337.9 813.3C325.8 784 311.3 763.5 283.8 736.4C260.8 713.6 247.1 704 229.1 697.7C221.2 694.9 219.2 694.6 203.8 694.2C187.6 693.8 187 693.9 181.6 696.3C177.7 698.1 173.2 701.7 166.7 708.2C154.8 720.2 151.6 726 151.2 737.6C150.7 748.3 152.6 755.8 162.9 783.2C174.3 813.6 174.5 814.8 178 855.5C178.5 861.6 179.4 870.8 179.9 876C181.3 890.1 178.6 924.2 174.2 949C172.8 957 171.5 968.8 171.2 975.2C170.9 985.5 171.2 988.2 173.5 997.5C175 1003.3 176 1008.3 175.7 1008.6C174.7 1009.7 169.2 1000.9 167.4 995.5C166.3 991.8 165.9 988.7 166.4 985.8C166.8 983.4 167.5 978.7 168 975.3C168.6 971.8 169.5 966 170 962.3C173.8 938 175.1 920.6 175.6 887.3C176.1 856.1 176.1 856.1 164.2 837.8C140.4 801.3 130.2 780.1 115 735.2C104.1 703.2 98 678.8 98 667.1C98 658.9 96.1 639.4 95 635.7C94.2 633.2 94.6 632.7 98.5 630C103.8 626.4 122.7 609.5 137.5 595.1C143.6 589.3 150.8 582.9 153.5 581.1C156.3 579.2 159.6 576.6 161 575.2C162.3 573.9 165.8 571.7 168.7 570.4C171.6 569 176.4 565.7 179.2 563.1C182.1 560.5 188.6 555.5 193.5 551.9C207.2 542.1 267.6 502 268.8 502C269.4 502 270 501.6 270.2 501.2C270.4 500.7 273.7 498.6 277.5 496.5C281.4 494.4 289 490.1 294.5 487C300 483.9 308.3 479.3 313 476.7C317.7 474.2 325.1 470.1 329.5 467.6C333.9 465.1 337.8 463 338.2 463C338.6 463 345.5 459.8 353.6 456C361.6 452.1 368.8 449 369.4 449C370.1 449 371 448.7 371.4 448.2C371.8 447.8 372.5 447.5 372.8 447.5C373.9 447.5 385.4 442.8 386.6 441.8C387.2 441.4 389.6 440.4 391.9 439.6C396.7 437.8 401.9 435.6 407.3 432.9C409.5 431.9 411.9 431 412.7 431C413.5 431 415.6 430.4 417.3 429.6C424.3 426.6 433.5 423 434.3 423C434.7 423 436.7 422.3 438.8 421.4C440.8 420.4 443.4 419.5 444.5 419.3C445.6 419.1 448.8 418.1 451.5 417.1C458 414.6 470.2 410.8 483.5 407.1C485.7 406.5 490.2 405.2 493.5 404.2C502.9 401.2 516.4 398.5 519 398.9C519.8 399.1 520.9 399.8 521.3 400.6C521.8 401.4 522.5 401.8 523.1 401.5C523.6 401.1 524 401.3 524 401.8C524 403.3 528 404.9 544.7 409.9C552.5 412.3 556.5 413.2 559.3 413.4C560.2 413.4 561 413.7 561 414C561 414.9 566.7 417.1 569.9 417.3C571.6 417.4 573 417.8 573 418.1C573 418.7 576.5 420.2 578.5 420.4C579.1 420.5 580.1 421.1 580.8 421.7C581.8 422.7 582.7 422.7 584.2 421.9C585.7 421.1 586.1 421.1 585.6 421.9C585.2 422.5 585.4 423.1 585.9 423.1C587.1 423.3 588.5 423.6 589.8 424C590.2 424.1 590.8 424.2 591.3 424.1C591.7 424.1 592 424.5 592 425.1C592 425.6 592.4 425.9 592.9 425.6C593.4 425.2 594.1 425.6 594.3 426.2C594.7 427.2 595 427.2 595.8 426.2C596.5 425.1 596.8 425.1 597.3 426.4C597.7 427.3 598.6 427.7 599.5 427.4C600.3 427 601 427.3 601 428C601 428.9 601.3 429 602.4 428.1C603.5 427.2 603.9 427.3 604.4 428.6C604.8 429.5 605.7 430 606.5 429.6C607.3 429.3 608 429.5 608 430C608 430.6 608.7 431 609.5 431C610.3 431 611 431.5 611 432.1C611 432.7 611.6 433 612.4 432.7C613.1 432.4 614.6 432.8 615.7 433.5C618.5 435.4 628.1 439 630.6 439C631.7 439 634.5 439.9 636.8 441C639 442.1 641.4 443 642 443C642.6 443 645.7 444.2 648.8 445.6C651.9 447 655.4 448.5 656.5 449C657.6 449.5 661.2 451.1 664.5 452.6C667.8 454.1 673.6 456.5 677.3 458.1C685.9 461.7 725 481.7 727.1 483.6C727.9 484.4 729 485 729.3 485C729.7 485 731.7 486.1 733.8 487.4C735.8 488.6 738.6 490.1 739.9 490.5C741.3 490.9 744.5 492.8 747.2 494.6C749.8 496.5 752.3 498 752.6 498C753.9 498 775.8 511.5 781 515.5C784.1 517.9 791 522.8 796.5 526.5C802 530.2 807.7 534.2 809.3 535.4C816.8 541.1 827.2 549.9 833 555.4C839.1 561 842.8 564.2 850.4 570.2C852 571.5 856 574.9 859.4 577.9C862.8 580.8 869.1 586 873.5 589.3C877.9 592.6 884.9 598.3 889 602C893.1 605.7 899.7 611.1 903.7 614.1C921.9 627.8 927.8 632 929 632C930 632 930 632.4 928.9 633.8C925.8 637.6 924.9 640.4 924.9 646.2C924.8 650.2 925.3 652.6 926.2 653.1C927.2 653.8 927.3 654 926.2 654C925.5 654 925.1 654.4 925.5 654.9C925.8 655.4 925.1 656.1 924 656.5C922.9 656.9 922.2 657.6 922.5 658.1C922.9 658.6 922.6 659 922.1 659C920.5 659 920.8 661.6 922.5 663.4C924.4 665.3 924.4 666 922.5 666C921.7 666 921 666.7 921 667.5C921 668.3 920.5 669 920 669C919.4 669 919.2 670.1 919.6 671.5C919.9 672.9 919.8 674 919.2 674C918.7 674 918.2 675 918.2 676.3C918.2 677.5 917.9 680.2 917.5 682.3C917 684.8 917.1 686 917.9 686C918.5 686 919 686.5 919 687C919 687.6 918.3 688 917.5 688C915.7 688 915.5 689.6 917.2 690.3C918 690.6 917.8 690.9 916.8 690.9C914.9 691 914.2 694 916 694C916.6 694 917 694.5 917 695C917 695.6 916.3 696 915.5 696C914.7 696 914 696.5 914 697C914 697.6 914.5 698 915 698C916.9 698 916 701.2 914 701.7C911.7 702.3 911.4 703.6 913.3 704.3C914 704.7 913.9 704.9 912.9 704.9C910.7 705 909.7 709.5 911.2 712.1C912.2 713.8 912.3 714.4 911.2 714.7C910.6 715 910.2 715.5 910.5 716C910.8 716.4 909.9 717.1 908.6 717.4C906.8 717.8 906.3 718.5 906.7 720C907 721.2 906.7 722.2 905.8 722.5C904 723.2 903.6 729.1 905.3 730.2C906.1 730.7 905.8 731 904.5 731C902.8 731 902.8 731.2 904 732C905.3 732.8 905.3 733 903.9 733C902.1 733 893.6 749.5 894.6 751.1C894.9 751.6 894.6 752 894 752C893.4 752 893.2 752.5 893.5 753C893.8 753.6 893.6 754 893 754C892.4 754 892.2 754.5 892.5 755C892.8 755.6 892.6 756 892 756C891.4 756 891.2 756.4 891.5 757C891.8 757.6 891.7 758 891.1 758C890.5 758 890.3 758.7 890.6 759.5C891 760.3 890.7 761 890 761C889.4 761 889.2 761.5 889.5 762C889.8 762.6 889.7 763 889.1 763C888.5 763 888.3 763.7 888.6 764.5C889 765.3 888.7 766 888.1 766C887.5 766 887.3 766.7 887.6 767.5C888 768.3 887.7 769 887 769C886.4 769 886.2 769.5 886.5 770C886.8 770.6 886.7 771 886.1 771C885.5 771 885.3 771.7 885.6 772.5C886 773.3 885.7 774 885 774C884.4 774 884.2 774.5 884.5 775C884.8 775.6 884.7 776 884.2 776C883.1 776 880.9 781.6 881.7 782.3C882.7 783.4 880.8 787 879.3 787C878.4 787 877.9 787.2 878.2 787.5C878.5 787.8 876.5 790.4 873.9 793.2C871.3 796.1 869.3 798.6 869.5 798.9C869.8 799.1 869.1 800 868 800.7C866.9 801.5 866.2 802.6 866.5 803.1C866.9 803.6 866.6 804 866 804C865.4 804 865.1 804.4 865.4 804.9C865.7 805.4 865.3 806.1 864.4 806.4C863.5 806.8 863 807.7 863.4 808.5C863.7 809.3 863.5 810 863 810C862.3 810 860.8 814.4 860.9 816.7C860.9 817.2 860.2 817.9 859.4 818.3C858.6 818.8 858.2 819.5 858.5 820C858.8 820.4 858.3 821.1 857.4 821.4C856.6 821.7 856.1 822.4 856.4 822.9C856.7 823.4 856.3 824 855.5 824.4C853.8 825 853.5 830.1 855.1 831.7C856.6 833.2 855.3 841 853.6 841C851.3 841 849.7 849 850 858.5C850.3 867 850.4 879.1 850.2 890.5C850.1 893.3 850.5 895.7 851 895.8C852.4 896.3 852.3 905 850.9 905C849.6 905 850.2 921.3 852 932.5C852.7 936.9 853.4 942.8 853.5 945.5C854 954.1 855.2 961 856.2 961C856.7 961 856.8 961.9 856.5 963C856.1 964.2 856.3 965 857 965C857.8 965 858 965.9 857.6 967.5C857.2 968.9 857.3 970 857.8 970C858.3 970 858.5 971.4 858.2 973C858 974.7 858.2 976 858.6 976C859.1 976 859.4 979.1 859.2 982.9C858.9 988.3 859.2 990.1 860.5 991.4C862.4 993.3 862.4 993.2 859.2 994.9C858 995.6 857.2 996.5 857.5 997.1C857.9 997.6 857.6 998 857 998C856.4 998 856.2 998.5 856.5 999C857.3 1000.3 844.1 1019 842.4 1019C841.6 1019 841.3 1019.6 841.6 1020.5C842 1021.3 841.8 1022 841.2 1022C839.5 1022 833.9 1027.1 833 1029.5C832.4 1030.9 828.3 1033.6 820.8 1037.5C810.5 1042.7 809.1 1043.2 804.8 1042.7C801.8 1042.3 800 1042.5 800 1043.1C800 1043.8 798.8 1043.9 797 1043.5C794.9 1043 793.5 1043.3 792.4 1044.4C791.5 1045.3 791.3 1046 792 1046C792.6 1046 792.8 1046.5 792.5 1047C791.7 1048.4 787.3 1048.3 784.7 1046.8C782.5 1045.6 749.7 1045.4 743.8 1046.6C742.3 1046.9 740.5 1046.8 739.9 1046.4C737.4 1044.9 731 1044.9 730.4 1046.5C729.6 1048.5 727.8 1048.4 725.3 1046C723.6 1044.5 721.8 1044.1 716.7 1044.1C713.1 1044.2 709.2 1043.7 708 1043C706.5 1042.2 705 1042.2 702.6 1043C699.1 1044.1 693 1042.7 693 1040.7C693 1040.1 692.7 1039.9 692.4 1040.3C691.5 1041.1 686 1038.2 686 1036.9C686 1036.3 685.6 1036.2 685 1036.5C684.5 1036.8 684 1036.5 684 1035.7C684 1034.9 681.8 1032.3 679.2 1029.9C674.4 1025.4 674.4 1025.4 673.1 1007C671.7 985.8 671.5 985 669 985C668 985 667 984.4 666.7 983.6C666.2 982.4 664.4 982.7 656.8 985.2C651.7 986.9 646.4 988.2 645 988.2C643.7 988.2 642.1 988.8 641.5 989.5C638.9 992.8 593.2 1003.7 568.5 1006.9C564.1 1007.5 556.9 1008.4 552.5 1009C542.1 1010.3 479.4 1010.3 467.6 1008.9C445 1006.3 436.5 1004.8 415 999.3C405.4 996.8 392.6 993.7 386.5 992.4C380.5 991 373.8 989.4 371.7 988.8C368.6 987.9 367.3 987.9 364.4 989.4C362.4 990.3 360.6 992 360.3 993C360 994.1 359.5 995 359.1 995C358 995 358.3 1002.4 359.4 1003.2C360.1 1003.7 359.9 1004 358.9 1004C357.1 1004 356 1007.8 356 1014C356 1016.1 355 1020 353.8 1022.7C352.6 1025.3 351.8 1027.9 351.9 1028.3C352.2 1029.9 347.8 1034.5 344.4 1036C342.5 1036.9 340.4 1038.4 339.7 1039.4C337.9 1041.9 319.9 1045.2 309.2 1045C302.6 1044.9 300.8 1045.2 300.4 1046.5C299.7 1048.3 297.9 1048.4 296.4 1046.7ZM802.5 1027.5C824.1 1023.5 838 1013.7 846.7 996.7C851.2 987.8 851.4 982.7 848.1 958.8C843.2 923.1 842.7 914.4 843.3 879C843.9 843.4 844.8 835.2 851.2 812C854 801.5 863.9 774 870.5 758C872.4 753.5 873.4 749 873.8 743.3C874.2 735.8 874.1 734.7 871.2 728.8C866.8 719.5 858.4 709.2 851.2 704.3C842.8 698.6 834.1 696 823.1 696C811.1 696 801 698.8 786.5 706C770.5 713.9 755.6 725.2 738.5 742.4C727.3 753.7 722.4 759.6 713.9 772C689.2 808.1 681.1 830.5 673.3 884.5C671.1 899.9 670.8 964 672.9 979C675.6 998.8 680 1015.1 683.8 1019.4C686.3 1022.1 692.6 1025.1 700 1027.1C705.7 1028.7 711.6 1028.9 750.5 1028.9C785.5 1029 796.1 1028.7 802.5 1027.5ZM552.5 985.1C578.7 982.7 610.3 975.8 636.8 966.9C656.2 960.3 663.2 957 664.8 953.6C665.4 952.3 665.8 940.7 665.9 925.4C666 873.1 674.7 827.5 690.5 795.9C695.5 786 712.1 761.6 721 751C745.5 722 775.7 699.1 800 691.2C822.3 683.9 839.2 684.5 853.6 693.1C861.7 697.9 874.7 711.2 880.1 720C882.6 724.1 885.1 727.5 885.6 727.5C887 727.5 894.6 703.9 898 689.2C904.5 660.5 905 656.7 905 639C905 622.1 905 622.1 897.3 615.9C893 612.4 887 607.3 884 604.5C881 601.7 875.1 596.9 871 593.8C866.9 590.8 857.7 583.1 850.6 576.9C818.6 548.6 808.3 540.4 778.5 519.5C761.4 507.5 755 503.6 734.1 492.3C724.4 487.1 713.7 481.2 710.3 479.4C706.9 477.5 704 476.3 703.7 476.7C703.5 477.1 703.6 480 704.1 483C708.3 511.9 708.5 514.2 706.7 525.8C703.5 547.1 695.2 567.5 686.2 576.2C678.9 583.4 673.1 586 664.5 586C653.2 586 648.8 584 639.5 574.6C627.2 562.3 621.8 550.3 618.4 527.9C614.4 501.2 622.5 469.7 637.8 452.8C641.4 448.8 641.4 448.8 639.3 447C634.2 442.9 588.5 426.4 531 408C513.8 402.4 511.2 401.8 508 402.7C506.1 403.3 497.8 405.6 489.5 407.9C481.3 410.3 468.4 414.2 461 416.7C432 426.5 383 445.7 383 447.3C383 447.8 385 450.5 387.4 453.3C398.8 466.8 402.2 475.9 405.5 500.9C406.8 511 406.8 513.7 405.5 523.5C403.6 537.8 400.1 550.1 394.6 561.5C386.1 579 376.6 586 361.5 586C352.3 586 348.2 584.5 340.3 578.2C330.2 570.1 322.8 557.8 318.5 541.8C316.3 533.6 316 530.5 316 514.8C316 501.3 316.5 494.9 318 487.4C319.1 482 319.7 477.4 319.4 477.1C317.9 475.6 280.7 496.9 251 516.3C213.1 541 196.6 552.6 184 563C177.7 568.3 169.1 575 164.9 577.8C160.7 580.7 154.3 586.4 150.5 590.6C146.8 594.7 138.2 603.1 131.4 609.2C121.8 617.8 118.8 621 118 623.9C116.2 630.3 116.8 653.5 119 666.1C124.7 697.5 137.6 740 141.2 738.8C141.8 738.6 143.3 735.7 144.5 732.4C149 720.3 152.1 715.7 163.1 704.5C174.6 692.7 180 689.1 188.9 687C199.3 684.6 222.5 688.1 236.7 694.2C272.5 709.7 310.2 747.7 337.4 795.7C344.7 808.7 348.1 817.5 352.4 835.2C359.4 863.7 360.9 876.2 361.9 912.5C362.8 943.8 364.4 955.6 368.2 959.7C374.9 966.9 422.3 978.9 472 985.9C480.2 987.1 537.9 986.5 552.5 985.1Z" fill="#753E11"/>
<path id="Vector" d="M488.433 921.576C462.402 917.312 443.045 906.546 428.139 887.999C416.903 874.036 410.785 859.966 407.225 840.247C405.222 829.268 405 822.766 405 771.495C405 713.19 405.445 706.368 409.783 692.191C415.902 672.579 434.48 651.26 455.282 639.855C481.758 625.359 517.245 624.08 545.946 636.444C573.09 648.169 592.891 672.152 599.232 700.719C601.679 711.911 601.568 836.09 599.009 847.495C596.896 857.301 592.001 868.92 586.216 877.447C567.305 905.374 549.395 916.779 516.133 922.002C507.011 923.494 499.224 923.281 488.433 921.576Z" fill="#A36812"/>
<path id="peve10VC6" d="M490 915.5C466.6 911.5 449.2 901.4 435.8 884C425.7 870.9 420.2 857.7 417 839.2C415.2 828.9 415 822.8 415 774.7C415 720 415.4 713.6 419.3 700.3C424.8 681.9 441.5 661.9 460.2 651.2C484 637.6 515.9 636.4 541.7 648C566.1 659 583.9 681.5 589.6 708.3C591.8 718.8 591.7 835.3 589.4 846C587.5 855.2 583.1 866.1 577.9 874.1C560.9 900.3 544.8 911 514.9 915.9C506.7 917.3 499.7 917.1 490 915.5Z" fill="#753E11"/>
<path id="Vector_2" d="M491.534 875.923C470.152 872.7 454.252 864.562 442.007 850.542C432.778 839.987 427.752 829.351 424.828 814.444C423.183 806.145 423 801.23 423 762.473C423 718.398 423.366 713.241 426.929 702.524C431.955 687.698 447.215 671.583 464.303 662.962C486.051 652.003 515.201 651.036 538.777 660.383C561.074 669.247 577.339 687.376 582.548 708.97C584.558 717.431 584.467 811.302 582.365 819.923C580.629 827.336 576.608 836.119 571.856 842.565C556.322 863.676 541.61 872.297 514.288 876.246C506.794 877.374 500.398 877.213 491.534 875.923Z" fill="#753E11"/>
<path id="Vector_3" d="M492.149 857.112C472.759 854.452 458.34 847.737 447.236 836.169C438.867 827.46 434.309 818.684 431.657 806.384C430.166 799.536 430 795.481 430 763.502C430 727.135 430.331 722.88 433.563 714.038C438.121 701.805 451.959 688.508 467.455 681.394C487.177 672.353 513.611 671.555 534.99 679.267C555.21 686.58 569.96 701.539 574.683 719.357C576.506 726.338 576.423 803.791 574.517 810.905C572.943 817.022 569.297 824.269 564.988 829.587C550.901 847.006 537.559 854.12 512.783 857.378C505.988 858.308 500.187 858.175 492.149 857.112Z" fill="#753E11"/>
<path id="Vector_4" d="M494.379 832.363C478.973 830.455 467.517 825.638 458.694 817.339C452.045 811.091 448.424 804.795 446.317 795.971C445.132 791.059 445 788.149 445 765.208C445 739.119 445.263 736.066 447.831 729.723C451.452 720.947 462.447 711.408 474.759 706.305C490.428 699.818 511.431 699.246 528.417 704.778C544.482 710.025 556.201 720.756 559.954 733.539C561.402 738.547 561.336 794.111 559.822 799.215C558.571 803.603 555.674 808.801 552.251 812.617C541.058 825.113 530.458 830.216 510.772 832.553C505.374 833.221 500.765 833.126 494.379 832.363Z" fill="#753E11"/>
<path id="Vector_5" d="M495.983 817.442C483.82 815.955 474.776 812.199 467.811 805.729C462.562 800.858 459.703 795.95 458.04 789.071C457.104 785.241 457 782.973 457 765.087C457 744.747 457.208 742.368 459.235 737.422C462.094 730.58 470.774 723.143 480.494 719.165C492.864 714.108 509.445 713.661 522.855 717.975C535.538 722.065 544.79 730.431 547.753 740.397C548.896 744.301 548.844 787.621 547.649 791.599C546.661 795.02 544.374 799.073 541.671 802.048C532.835 811.79 524.467 815.769 508.925 817.591C504.663 818.112 501.025 818.037 495.983 817.442Z" fill="#753E11"/>
</g>
</g>
<g id="l5R9sW431peRh00pyOcU964">
<g id="Group_6">
<path id="p17VHFttIk" d="M93.7 633.9C91.7 631.6 86.5 620.9 85.5 616.7C85.1 615.2 84.4 613.7 83.9 613.4C82.6 612.7 82.8 607 84 607C84.6 607 85.4 607.9 85.8 609.1C86.3 610.2 86.8 611.1 87 611C88.4 610.5 94 613.9 97.7 617.3C101.8 621.2 102 621.3 105.2 620C108.7 618.5 116.6 612.2 126.9 602.5C130.4 599.2 133.8 596 134.4 595.5C135 594.9 137.3 593.1 139.5 591.5C141.7 589.8 144 588.1 144.7 587.5C146.9 585.7 148.5 584.5 153.5 581.1C156.3 579.2 159.6 576.6 161 575.2C162.3 573.9 165.8 571.7 168.7 570.4C171.6 569 176.4 565.7 179.2 563.1C182.1 560.5 188.6 555.5 193.5 551.9C207.3 542 268 501.7 268.5 502.2C268.8 502.4 259.2 509.1 247.2 517C235.3 524.9 225.4 531.7 225.2 532.2C225 532.6 224.4 533 223.9 533C222.5 533 212 540.2 212 541.1C212 541.6 211.5 542 211 542C208.6 542 193.8 552.7 182.1 562.8C178.1 566.3 171.5 571.4 167.4 574.3C163.3 577.1 160 579.8 160 580.2C160 580.6 159.4 581 158.7 581C158 581 152.7 585.8 147 591.6C126.8 611.9 99.1 636.2 96.3 635.9C95.9 635.9 94.7 634.9 93.7 633.9Z" fill="#423E3B"/>
<path id="px0A074Xq" d="M916.3 628.7C911.7 625.3 905.4 620.6 902.3 618.3C899.1 616.1 893.1 611.2 889 607.5C884.9 603.8 877.2 597.5 872 593.5C866.8 589.5 854.9 579.4 845.5 571C823.2 551 808.4 539.2 786.7 524C763 507.3 753.6 501.4 735.1 491.5C726.5 487 716.8 481.6 713.5 479.6C703.2 473.4 668.2 456.6 653 450.5C645 447.3 634 442.9 628.5 440.7C614.8 435.3 578.5 422.5 549.5 413C536.3 408.7 522.4 404.1 518.5 402.7C511.7 400.3 511.6 400.2 514.5 399.4C518.2 398.4 520.3 398.8 521.3 400.6C521.8 401.4 522.5 401.8 523.1 401.5C523.6 401.1 524 401.3 524 401.8C524 403.3 528 404.9 544.7 409.9C552.5 412.3 556.5 413.2 559.3 413.4C560.2 413.4 561 413.7 561 414C561 414.9 566.7 417.1 569.9 417.3C571.6 417.4 573 417.8 573 418.1C573 418.7 576.5 420.2 578.5 420.4C579.1 420.5 580.1 421.1 580.8 421.7C581.8 422.7 582.7 422.7 584.2 421.9C585.7 421.1 586.1 421.1 585.6 421.9C585.2 422.5 585.4 423.1 585.9 423.1C587.1 423.3 588.5 423.6 589.8 424C590.2 424.1 590.8 424.2 591.3 424.1C591.7 424.1 592 424.5 592 425.1C592 425.6 592.4 425.9 592.9 425.6C593.4 425.2 594.1 425.6 594.3 426.2C594.7 427.2 595 427.2 595.8 426.2C596.5 425.1 596.8 425.1 597.3 426.4C597.7 427.3 598.6 427.7 599.5 427.4C600.3 427 601 427.3 601 428C601 428.9 601.3 429 602.4 428.1C603.5 427.2 603.9 427.3 604.4 428.6C604.8 429.5 605.7 430 606.5 429.6C607.3 429.3 608 429.5 608 430C608 430.6 608.7 431 609.5 431C610.3 431 611 431.5 611 432.1C611 432.7 611.6 433 612.4 432.7C613.1 432.4 614.6 432.8 615.7 433.5C618.5 435.4 628.1 439 630.6 439C631.7 439 634.5 439.9 636.8 441C639 442.1 641.4 443 642 443C642.6 443 645.7 444.2 648.8 445.6C651.9 447 655.4 448.5 656.5 449C657.6 449.5 661.2 451.1 664.5 452.6C667.8 454.1 673.6 456.5 677.3 458.1C685.9 461.7 725 481.7 727.1 483.6C727.9 484.4 729 485 729.3 485C729.7 485 731.7 486.1 733.8 487.4C735.8 488.6 738.6 490.1 739.9 490.5C741.3 490.9 744.5 492.8 747.2 494.6C749.8 496.5 752.3 498 752.6 498C753.9 498 775.8 511.5 781 515.5C784.1 517.9 791 522.8 796.5 526.5C802 530.2 807.7 534.2 809.3 535.4C816.8 541.2 827.2 549.9 833 555.4C836.6 558.7 841.3 562.9 843.4 564.5C845.5 566.2 848 568.2 848.9 569C849.8 569.8 852.8 572.1 855.6 574C858.3 575.9 861.1 578 861.8 578.7C862.6 579.4 864.1 580.5 865.3 581.2C866.5 581.8 872.9 586.4 879.4 591.4C885.9 596.4 893.4 602 895.9 603.9C898.4 605.8 900.7 607.7 901 608.1C901.3 608.5 905.1 610.6 909.4 612.9C920.6 618.7 923.9 618.5 932.6 611.3C937.6 607.3 940 607 940 610.5C940 611.9 939.4 613 938.8 613C937.1 613 932.8 619.8 932.6 622.7C932.6 623.9 932.2 625 931.8 625C930.6 625 930.9 628.8 932.1 629.2C934.7 630.1 929.1 635.1 925.6 635C925 635 920.8 632.1 916.3 628.7Z" fill="#423E3B"/>
<path id="pdi3GhFyr" d="M270 501.2C270 500.8 273.3 498.7 277.3 496.6C281.2 494.4 289 490.1 294.5 487C300 483.9 308.3 479.3 313 476.7C317.7 474.2 325.1 470.1 329.5 467.6C333.9 465.1 337.8 463 338.2 463C338.6 463 345.5 459.9 353.6 456C361.6 452.1 368.8 449 369.4 449C370.1 449 371 448.7 371.4 448.3C371.8 447.8 372.5 447.5 372.8 447.5C373.9 447.5 385.4 442.8 386.6 441.8C387.2 441.4 389.6 440.4 391.9 439.6C396.7 437.8 401.9 435.6 407.3 432.9C409.5 431.9 411.9 431 412.7 431C413.5 431 415.6 430.4 417.3 429.6C424.3 426.6 433.5 423 434.3 423C434.7 423 436.7 422.3 438.8 421.4C440.8 420.4 443.4 419.5 444.5 419.3C445.6 419.1 448.8 418.1 451.5 417.1C458.1 414.6 470.7 410.7 484 407C486.5 406.3 489.6 405.4 491 404.9C494.8 403.6 508.3 400 509.4 400C512 400 507.8 401.4 489.9 406.5C459 415.5 432.5 424.9 389.5 442.3C352.9 457.1 322.3 472.1 279.8 496.3C274.4 499.4 270 501.5 270 501.2Z" fill="#423E3B"/>
</g>
</g>
</g>
</svg>
